<svg width="118" height="39" viewBox="0 0 118 39" fill="none" xmlns="http://www.w3.org/2000/svg">
<rect width="118" height="39" rx="8" fill="black"/>
<g clip-path="url(#clip0_189_345)">
<path d="M30.091 24.7938C29.6718 26.0387 29.0636 27.2177 28.286 28.2927L28.316 28.2486C27.0753 30.0548 25.84 30.9578 24.61 30.9578C23.901 30.911 23.2043 30.7564 22.546 30.4998L22.59 30.5151C21.9005 30.2463 21.1669 30.0967 20.423 30.0733H20.412C19.6922 30.0976 18.9845 30.2572 18.329 30.5429L18.364 30.5295C17.7717 30.8011 17.1303 30.9605 16.475 30.999L16.46 31C14.9986 31 13.5513 29.8069 12.118 27.4206C10.7899 25.3269 10.0589 22.9356 9.99797 20.4861V20.467C9.91266 18.6067 10.4934 16.7743 11.644 15.2737L11.627 15.2967C12.0903 14.6796 12.7002 14.1769 13.4064 13.8303C14.1125 13.4837 14.8946 13.3031 15.688 13.3034H15.725H15.723C16.6134 13.3306 17.4955 13.4763 18.344 13.7366L18.276 13.7184C18.9081 13.924 19.5621 14.0615 20.226 14.1285L20.267 14.1324C20.9923 14.0733 21.704 13.9092 22.378 13.6455L22.33 13.6618C23.1254 13.3803 23.9626 13.2218 24.81 13.1923H24.895C25.975 13.1906 27.0292 13.5082 27.914 14.1017L27.897 14.0912C28.4683 14.4898 28.9643 14.9447 29.385 15.4558L29.397 15.4712C28.7876 15.941 28.2412 16.4811 27.77 17.0792L27.753 17.1022C27.1406 17.9309 26.8128 18.9216 26.815 19.937V19.9648V20.0232C26.815 21.155 27.188 22.2035 27.822 23.0621L27.81 23.0458C28.3338 23.8512 29.1258 24.4637 30.058 24.7842L30.089 24.7938H30.091ZM24.668 8.58075C24.6501 9.23926 24.5036 9.88873 24.236 10.4955L24.25 10.461C23.9445 11.1786 23.4884 11.8284 22.91 12.37L22.909 12.371C22.4839 12.8074 21.9607 13.1453 21.379 13.359L21.351 13.3676C20.8683 13.4909 20.3744 13.5689 19.876 13.6005L19.851 13.6015V13.5746C19.851 12.2598 20.271 11.0379 20.99 10.0278L20.975 10.0499C21.8575 8.96475 23.1317 8.23525 24.547 8.00479L24.581 8C24.594 8.04121 24.607 8.09296 24.616 8.14567L24.617 8.15333C24.627 8.21275 24.64 8.26706 24.656 8.31625L24.653 8.30667C24.653 8.34372 24.6553 8.38972 24.66 8.44467C24.6646 8.49961 24.667 8.54497 24.667 8.58075H24.668Z" fill="white"/>
</g>
<path d="M38.216 20.28H42.088L40.184 14.952H40.152L38.216 20.28ZM39.352 13.576H41.032L45.496 25H43.816L42.568 21.56H37.736L36.456 25H34.904L39.352 13.576ZM46.447 16.728H47.807V17.848H47.839C48.063 17.3893 48.415 17.0587 48.895 16.856C49.375 16.6427 49.903 16.536 50.479 16.536C51.119 16.536 51.6737 16.6533 52.143 16.888C52.623 17.1227 53.0177 17.4427 53.327 17.848C53.647 18.2427 53.887 18.7013 54.047 19.224C54.207 19.7467 54.287 20.3013 54.287 20.888C54.287 21.4747 54.207 22.0293 54.047 22.552C53.8977 23.0747 53.663 23.5333 53.343 23.928C53.0337 24.312 52.639 24.616 52.159 24.84C51.6897 25.064 51.1403 25.176 50.511 25.176C50.3083 25.176 50.079 25.1547 49.823 25.112C49.5777 25.0693 49.3323 25 49.087 24.904C48.8417 24.808 48.607 24.68 48.383 24.52C48.1697 24.3493 47.9883 24.1413 47.839 23.896H47.807V28.152H46.447V16.728ZM52.847 20.792C52.847 20.408 52.7937 20.0347 52.687 19.672C52.591 19.2987 52.4363 18.968 52.223 18.68C52.0203 18.392 51.7537 18.1627 51.423 17.992C51.103 17.8213 50.7243 17.736 50.287 17.736C49.8283 17.736 49.439 17.8267 49.119 18.008C48.799 18.1893 48.5377 18.4293 48.335 18.728C48.1323 19.016 47.983 19.3467 47.887 19.72C47.8017 20.0933 47.759 20.472 47.759 20.856C47.759 21.2613 47.807 21.656 47.903 22.04C47.999 22.4133 48.1483 22.744 48.351 23.032C48.5643 23.32 48.8363 23.5547 49.167 23.736C49.4977 23.9067 49.8977 23.992 50.367 23.992C50.8363 23.992 51.2257 23.9013 51.535 23.72C51.855 23.5387 52.111 23.2987 52.303 23C52.495 22.7013 52.6337 22.36 52.719 21.976C52.8043 21.592 52.847 21.1973 52.847 20.792ZM55.9314 16.728H57.2914V17.848H57.3234C57.5474 17.3893 57.8994 17.0587 58.3794 16.856C58.8594 16.6427 59.3874 16.536 59.9634 16.536C60.6034 16.536 61.158 16.6533 61.6274 16.888C62.1074 17.1227 62.502 17.4427 62.8114 17.848C63.1314 18.2427 63.3714 18.7013 63.5314 19.224C63.6914 19.7467 63.7714 20.3013 63.7714 20.888C63.7714 21.4747 63.6914 22.0293 63.5314 22.552C63.382 23.0747 63.1474 23.5333 62.8274 23.928C62.518 24.312 62.1234 24.616 61.6434 24.84C61.174 25.064 60.6247 25.176 59.9954 25.176C59.7927 25.176 59.5634 25.1547 59.3074 25.112C59.062 25.0693 58.8167 25 58.5714 24.904C58.326 24.808 58.0914 24.68 57.8674 24.52C57.654 24.3493 57.4727 24.1413 57.3234 23.896H57.2914V28.152H55.9314V16.728ZM62.3314 20.792C62.3314 20.408 62.278 20.0347 62.1714 19.672C62.0754 19.2987 61.9207 18.968 61.7074 18.68C61.5047 18.392 61.238 18.1627 60.9074 17.992C60.5874 17.8213 60.2087 17.736 59.7714 17.736C59.3127 17.736 58.9234 17.8267 58.6034 18.008C58.2834 18.1893 58.022 18.4293 57.8194 18.728C57.6167 19.016 57.4674 19.3467 57.3714 19.72C57.286 20.0933 57.2434 20.472 57.2434 20.856C57.2434 21.2613 57.2914 21.656 57.3874 22.04C57.4834 22.4133 57.6327 22.744 57.8354 23.032C58.0487 23.32 58.3207 23.5547 58.6514 23.736C58.982 23.9067 59.382 23.992 59.8514 23.992C60.3207 23.992 60.71 23.9013 61.0194 23.72C61.3394 23.5387 61.5954 23.2987 61.7874 23C61.9794 22.7013 62.118 22.36 62.2034 21.976C62.2887 21.592 62.3314 21.1973 62.3314 20.792ZM76.6529 16.92C76.5675 16.0987 76.2689 15.5067 75.7569 15.144C75.2555 14.7707 74.6102 14.584 73.8209 14.584C73.5009 14.584 73.1862 14.616 72.8769 14.68C72.5675 14.744 72.2902 14.8507 72.0449 15C71.8102 15.1493 71.6182 15.352 71.4689 15.608C71.3302 15.8533 71.2609 16.1627 71.2609 16.536C71.2609 16.888 71.3622 17.176 71.5649 17.4C71.7782 17.6133 72.0555 17.7893 72.3969 17.928C72.7489 18.0667 73.1435 18.184 73.5809 18.28C74.0182 18.3653 74.4609 18.4613 74.9089 18.568C75.3675 18.6747 75.8155 18.8027 76.2529 18.952C76.6902 19.0907 77.0795 19.2827 77.4209 19.528C77.7729 19.7733 78.0502 20.0827 78.2529 20.456C78.4662 20.8293 78.5729 21.2987 78.5729 21.864C78.5729 22.472 78.4342 22.9947 78.1569 23.432C77.8902 23.8587 77.5435 24.2107 77.1169 24.488C76.6902 24.7547 76.2102 24.9467 75.6769 25.064C75.1542 25.192 74.6315 25.256 74.1089 25.256C73.4689 25.256 72.8609 25.176 72.2849 25.016C71.7195 24.856 71.2182 24.616 70.7809 24.296C70.3542 23.9653 70.0129 23.5493 69.7569 23.048C69.5115 22.536 69.3889 21.9333 69.3889 21.24H70.8289C70.8289 21.72 70.9195 22.136 71.1009 22.488C71.2929 22.8293 71.5382 23.112 71.8369 23.336C72.1462 23.56 72.5035 23.7253 72.9089 23.832C73.3142 23.9387 73.7302 23.992 74.1569 23.992C74.4982 23.992 74.8395 23.96 75.1809 23.896C75.5329 23.832 75.8475 23.7253 76.1249 23.576C76.4022 23.416 76.6262 23.2027 76.7969 22.936C76.9675 22.6693 77.0529 22.328 77.0529 21.912C77.0529 21.5173 76.9462 21.1973 76.7329 20.952C76.5302 20.7067 76.2529 20.5093 75.9009 20.36C75.5595 20.2 75.1702 20.072 74.7329 19.976C74.2955 19.88 73.8475 19.784 73.3889 19.688C72.9409 19.5813 72.4982 19.464 72.0609 19.336C71.6235 19.1973 71.2289 19.0213 70.8769 18.808C70.5355 18.584 70.2582 18.3013 70.0449 17.96C69.8422 17.608 69.7409 17.1707 69.7409 16.648C69.7409 16.072 69.8582 15.576 70.0929 15.16C70.3275 14.7333 70.6369 14.3867 71.0209 14.12C71.4155 13.8427 71.8582 13.64 72.3489 13.512C72.8502 13.3733 73.3622 13.304 73.8849 13.304C74.4715 13.304 75.0155 13.3733 75.5169 13.512C76.0182 13.6507 76.4555 13.8693 76.8289 14.168C77.2129 14.4667 77.5115 14.8453 77.7249 15.304C77.9489 15.752 78.0715 16.2907 78.0929 16.92H76.6529ZM82.0839 16.728H83.7319V17.928H82.0839V23.064C82.0839 23.224 82.0945 23.352 82.1159 23.448C82.1479 23.544 82.2012 23.6187 82.2759 23.672C82.3505 23.7253 82.4519 23.7627 82.5799 23.784C82.7185 23.7947 82.8945 23.8 83.1079 23.8H83.7319V25H82.6919C82.3399 25 82.0359 24.9787 81.7799 24.936C81.5345 24.8827 81.3319 24.792 81.1719 24.664C81.0225 24.536 80.9105 24.3547 80.8359 24.12C80.7612 23.8853 80.7239 23.576 80.7239 23.192V17.928H79.3159V16.728H80.7239V14.248H82.0839V16.728ZM86.2348 20.872C86.2348 21.3733 86.2988 21.8213 86.4268 22.216C86.5654 22.6 86.7521 22.9253 86.9868 23.192C87.2214 23.448 87.4934 23.6453 87.8028 23.784C88.1228 23.9227 88.4588 23.992 88.8108 23.992C89.1628 23.992 89.4934 23.9227 89.8028 23.784C90.1228 23.6453 90.4001 23.448 90.6348 23.192C90.8694 22.9253 91.0508 22.6 91.1788 22.216C91.3174 21.8213 91.3868 21.3733 91.3868 20.872C91.3868 20.3707 91.3174 19.928 91.1788 19.544C91.0508 19.1493 90.8694 18.8187 90.6348 18.552C90.4001 18.2853 90.1228 18.0827 89.8028 17.944C89.4934 17.8053 89.1628 17.736 88.8108 17.736C88.4588 17.736 88.1228 17.8053 87.8028 17.944C87.4934 18.0827 87.2214 18.2853 86.9868 18.552C86.7521 18.8187 86.5654 19.1493 86.4268 19.544C86.2988 19.928 86.2348 20.3707 86.2348 20.872ZM84.7948 20.872C84.7948 20.264 84.8801 19.6987 85.0508 19.176C85.2214 18.6427 85.4774 18.184 85.8188 17.8C86.1601 17.4053 86.5814 17.096 87.0828 16.872C87.5841 16.648 88.1601 16.536 88.8108 16.536C89.4721 16.536 90.0481 16.648 90.5388 16.872C91.0401 17.096 91.4614 17.4053 91.8028 17.8C92.1441 18.184 92.4001 18.6427 92.5708 19.176C92.7414 19.6987 92.8268 20.264 92.8268 20.872C92.8268 21.48 92.7414 22.0453 92.5708 22.568C92.4001 23.0907 92.1441 23.5493 91.8028 23.944C91.4614 24.328 91.0401 24.632 90.5388 24.856C90.0481 25.0693 89.4721 25.176 88.8108 25.176C88.1601 25.176 87.5841 25.0693 87.0828 24.856C86.5814 24.632 86.1601 24.328 85.8188 23.944C85.4774 23.5493 85.2214 23.0907 85.0508 22.568C84.8801 22.0453 84.7948 21.48 84.7948 20.872ZM94.3823 16.728H95.6623V18.472H95.6943C96.0249 17.8 96.4303 17.304 96.9103 16.984C97.3903 16.664 97.9983 16.5147 98.7343 16.536V17.976C98.1903 17.976 97.7263 18.0507 97.3423 18.2C96.9583 18.3493 96.6489 18.568 96.4143 18.856C96.1796 19.144 96.0089 19.496 95.9023 19.912C95.7956 20.3173 95.7423 20.7867 95.7423 21.32V25H94.3823V16.728ZM105.221 20.072C105.2 19.752 105.125 19.448 104.997 19.16C104.88 18.872 104.714 18.6267 104.501 18.424C104.298 18.2107 104.053 18.0453 103.765 17.928C103.488 17.8 103.178 17.736 102.837 17.736C102.485 17.736 102.165 17.8 101.877 17.928C101.6 18.0453 101.36 18.2107 101.157 18.424C100.954 18.6373 100.794 18.888 100.677 19.176C100.56 19.4533 100.49 19.752 100.469 20.072H105.221ZM106.533 22.376C106.352 23.304 105.952 24.0027 105.333 24.472C104.714 24.9413 103.936 25.176 102.997 25.176C102.336 25.176 101.76 25.0693 101.269 24.856C100.789 24.6427 100.384 24.344 100.053 23.96C99.7225 23.576 99.4718 23.1173 99.3011 22.584C99.1411 22.0507 99.0505 21.4693 99.0291 20.84C99.0291 20.2107 99.1251 19.6347 99.3171 19.112C99.5091 18.5893 99.7758 18.136 100.117 17.752C100.469 17.368 100.88 17.0693 101.349 16.856C101.829 16.6427 102.352 16.536 102.917 16.536C103.653 16.536 104.261 16.6907 104.741 17C105.232 17.2987 105.621 17.6827 105.909 18.152C106.208 18.6213 106.41 19.1333 106.517 19.688C106.634 20.2427 106.682 20.7707 106.661 21.272H100.469C100.458 21.6347 100.501 21.9813 100.597 22.312C100.693 22.632 100.848 22.92 101.061 23.176C101.274 23.4213 101.546 23.6187 101.877 23.768C102.208 23.9173 102.597 23.992 103.045 23.992C103.621 23.992 104.09 23.8587 104.453 23.592C104.826 23.3253 105.072 22.92 105.189 22.376H106.533Z" fill="white"/>
<defs>
<clipPath id="clip0_189_345">
<rect width="20" height="23" fill="white" transform="translate(10 8)"/>
</clipPath>
</defs>
</svg>
