<svg width="204" height="60" viewBox="0 0 204 60" fill="none" xmlns="http://www.w3.org/2000/svg">
<path fill-rule="evenodd" clip-rule="evenodd" d="M50.7624 36.8341V50.2342C50.6926 50.6096 49.2108 59.5 43.1118 59.5C41.2327 59.5 39.2194 58.5992 37.1256 56.8082L32.2507 52.0788H11.9242C5.34737 52.0788 0 45.8158 0 38.1264V36.8341H0.783851V16.1254C0.783851 8.85967 5.78225 2.95056 11.9242 2.95056H14.9898C15.2636 2.83259 15.5535 2.661 15.7576 2.56448L16.8635 1.94783C17.7494 1.33118 18.7104 0.89148 19.7681 0.666269C20.6701 0.473231 21.572 0.44642 22.474 0.596561C23.2525 0.719891 23.6981 1.17568 23.7679 1.96391C23.7732 2.06043 23.784 2.15159 23.784 2.24811C23.8055 2.48405 23.8216 2.71998 23.8323 2.95056C23.8806 3.73343 23.8806 4.51631 23.8377 5.29919C23.8216 5.65845 23.8001 6.01236 23.7679 6.37162C23.6981 7.15986 23.1988 7.66391 22.3881 7.73361C21.878 7.78187 21.3841 7.79796 20.9009 7.76579C19.0379 7.67999 17.3414 7.04726 15.9723 5.51367C15.9025 5.44397 15.8327 5.37426 15.7468 5.30455H11.9296C7.07614 5.30455 3.13541 10.1573 3.13541 16.1308V36.8395H3.91926V38.1318C3.91926 43.6709 7.50564 48.1751 11.9296 48.1751H33.8398L39.7724 53.9287C41.0448 55.0065 42.2099 55.5964 43.1172 55.5964C45.1842 55.5964 46.462 51.816 46.8646 49.757V36.8449H47.6485V16.1254C47.6485 10.152 43.697 5.29919 38.849 5.29919H36.1323C35.7404 5.41715 35.2465 5.61019 35.021 5.71207L33.9257 6.32872C33.0399 6.94001 32.0788 7.38507 31.0212 7.61028C30.3286 7.76043 29.636 7.80868 28.9434 7.7497C28.7341 7.73361 28.53 7.71217 28.3153 7.67999C27.5368 7.54594 27.0858 7.09015 27.016 6.30191C26.9838 5.9641 26.9623 5.62628 26.9462 5.29382C26.914 4.51095 26.914 3.72807 26.9516 2.94519C26.9677 2.70926 26.9784 2.47332 26.9999 2.24275C27.0053 2.12478 27.016 2.01754 27.0214 1.90493C27.0912 1.11669 27.5959 0.612647 28.3905 0.542939C30.8601 0.32309 33.0775 0.837859 34.817 2.75752C34.8706 2.82722 34.9404 2.89157 35.0156 2.94519H38.8543C45.007 2.94519 50.0054 8.85431 50.0054 16.1201L49.9947 36.8288H50.7732L50.7624 36.8341Z" fill="#0056FF"/>
<path d="M37.1417 20.3454C35.9122 19.4767 34.4089 19.1014 32.9164 19.2944C31.2574 19.5089 29.7595 20.4097 28.7931 21.7717L25.2926 26.7049L21.9264 21.5787C21.0136 20.1845 19.5426 19.2301 17.8997 18.9566C16.4125 18.7099 14.8985 19.0317 13.6369 19.8574C10.8773 21.6645 10.0988 25.3805 11.9135 28.142L20.0204 40.4857C20.4553 41.156 21.0244 41.719 21.6686 42.1534C21.7062 42.1855 21.7492 42.2123 21.7921 42.2391C22.7854 42.9094 23.945 43.258 25.1316 43.258C25.3839 43.258 25.6416 43.2419 25.8993 43.2097C27.5529 42.9952 29.0562 42.0944 30.0226 40.7324L38.5698 28.6889C40.4811 25.9971 39.8368 22.2597 37.147 20.3508L37.1417 20.3454ZM26.9945 33.043C27.322 33.5417 27.4402 34.1423 27.3167 34.7267C27.1932 35.3166 26.8496 35.8206 26.3503 36.1477C25.8778 36.4587 25.2872 36.5767 24.7504 36.4855C24.4497 36.4373 24.1598 36.3247 23.8967 36.1584L23.8645 36.137C22.8659 35.4185 22.635 34.0189 23.3491 33.0162L25.2336 30.3566L26.9945 33.043ZM37.1041 27.6433L30.9514 36.3086L28.5569 39.6868C27.8804 40.6412 26.8281 41.2686 25.6684 41.4187C24.6322 41.5528 23.5961 41.3008 22.7424 40.7056C22.7317 40.7002 22.7209 40.6948 22.7102 40.6841C22.7048 40.6788 22.6941 40.6734 22.6887 40.668C22.227 40.3624 21.8297 39.9602 21.5237 39.4937L19.2741 36.0619L13.4221 27.15C12.1551 25.2196 12.6919 22.6136 14.6301 21.3481C15.5106 20.769 16.5736 20.5438 17.6152 20.7207C18.7695 20.9138 19.7949 21.5787 20.4338 22.5546L24.1813 28.2653L24.4014 28.6031L21.9639 32.0349C21.6472 32.4854 21.427 32.984 21.3197 33.5149C21.0083 35.0431 21.6257 36.6089 22.8874 37.5044C22.9196 37.5258 22.9518 37.5472 22.984 37.5687C23.435 37.8583 23.9397 38.0513 24.4658 38.1371C24.6806 38.1746 24.8953 38.1907 25.1101 38.1907C25.8778 38.1907 26.6241 37.9655 27.263 37.5472C28.5408 36.7107 29.2226 35.1879 28.9971 33.6758C28.9112 33.1127 28.7126 32.5819 28.3958 32.1046L26.1087 28.6246L26.3395 28.2975L30.2481 22.7905C30.9245 21.8361 31.9768 21.2033 33.1365 21.0532C34.1834 20.9191 35.2357 21.1819 36.0947 21.7932C37.9792 23.1284 38.4302 25.7505 37.0933 27.6326L37.1041 27.6433Z" fill="#23DBE1"/>
<path d="M25.3034 21.0693C27.773 21.0693 29.7863 19.0585 29.7863 16.5919C29.7863 14.1253 27.773 12.1145 25.3034 12.1145C22.8337 12.1145 20.8204 14.1253 20.8204 16.5919C20.8204 19.0585 22.8337 21.0693 25.3034 21.0693ZM25.3034 13.6052C26.9516 13.6052 28.2938 14.9457 28.2938 16.5919C28.2938 18.2381 26.9516 19.5786 25.3034 19.5786C23.6551 19.5786 22.3129 18.2381 22.3129 16.5919C22.3129 14.9457 23.6551 13.6052 25.3034 13.6052Z" fill="#23DBE1"/>
<path d="M70.101 24.2062C70.101 23.5788 69.9775 22.9836 69.7359 22.4259C69.4943 21.8683 69.1615 21.3803 68.7373 20.9567C68.3132 20.5331 67.8246 20.2006 67.2663 19.9593C66.7079 19.718 66.1119 19.5947 65.4838 19.5947C64.8556 19.5947 64.2597 19.718 63.7013 19.9593C63.143 20.2006 62.6544 20.5331 62.241 20.9567C61.8276 21.3803 61.5001 21.8683 61.2531 22.4259C61.0115 22.9836 60.8881 23.5788 60.8881 24.2062V34.5123C60.8881 34.7482 60.8075 34.9412 60.6465 35.1075C60.4854 35.2737 60.2867 35.3488 60.0505 35.3488C59.8143 35.3488 59.621 35.2683 59.4546 35.1075C59.2935 34.9466 59.213 34.7482 59.213 34.5123V24.2062C59.213 23.3428 59.374 22.5278 59.7015 21.7664C60.0237 20.9996 60.4693 20.3347 61.0384 19.7716C61.6075 19.2032 62.2732 18.7528 63.0356 18.4204C63.798 18.0879 64.614 17.9217 65.4784 17.9217C66.3428 17.9217 67.1589 18.0879 67.9213 18.4204C68.689 18.7528 69.3547 19.2032 69.9185 19.7716C70.4876 20.34 70.9332 21.0049 71.266 21.7664C71.5989 22.5332 71.7653 23.3428 71.7653 24.2062V34.5123C71.7653 34.7482 71.6848 34.9412 71.5237 35.1075C71.3627 35.2683 71.164 35.3488 70.9278 35.3488C70.6916 35.3488 70.4983 35.2683 70.3319 35.1075C70.1654 34.9466 70.0903 34.7482 70.0903 34.5123V24.2062H70.101Z" fill="#2A3C8C"/>
<path d="M73.2847 23.0747C73.2847 22.8388 73.3653 22.6458 73.5263 22.4795C73.6874 22.3187 73.886 22.2383 74.1223 22.2383C74.3585 22.2383 74.5518 22.3187 74.7182 22.4795C74.8793 22.6404 74.9598 22.8388 74.9598 23.0747V28.8498C74.9598 29.5147 75.0833 30.1421 75.341 30.7266C75.5933 31.311 75.9423 31.8258 76.3826 32.2655C76.8228 32.7052 77.3382 33.0538 77.9234 33.3058C78.5086 33.5578 79.1314 33.6865 79.8025 33.6865C80.4736 33.6865 81.0964 33.5632 81.6816 33.3058C82.2668 33.0538 82.7822 32.7106 83.2225 32.2655C83.6627 31.8258 84.0117 31.311 84.264 30.7266C84.5164 30.1421 84.6398 29.5147 84.6398 28.8498V23.0747C84.6398 22.8388 84.7204 22.6458 84.8814 22.4795C85.0425 22.3187 85.2412 22.2383 85.4774 22.2383C85.7136 22.2383 85.9123 22.3187 86.0733 22.4795C86.2344 22.6404 86.3149 22.8388 86.3149 23.0747V28.8498C86.3149 29.7507 86.1431 30.5925 85.7995 31.3861C85.4559 32.1797 84.9942 32.8661 84.409 33.4506C83.8238 34.035 83.1366 34.4962 82.342 34.8394C81.5474 35.1825 80.7045 35.3541 79.8025 35.3541C78.9005 35.3541 78.0576 35.1825 77.263 34.8394C76.4685 34.4962 75.7812 34.035 75.196 33.4506C74.6108 32.8661 74.1491 32.1797 73.8055 31.3861C73.4619 30.5925 73.2901 29.7507 73.2901 28.8498V23.0747H73.2847Z" fill="#2A3C8C"/>
<path d="M97.0258 35.3488C96.7895 35.3488 96.5963 35.2683 96.4298 35.1075C96.2688 34.9466 96.1882 34.7482 96.1882 34.5123V22.9139C96.1882 22.4474 96.1023 22.013 95.9305 21.6055C95.7587 21.2033 95.5225 20.8441 95.2165 20.5384C94.9104 20.2328 94.5561 19.9969 94.1481 19.8253C93.7454 19.6537 93.3159 19.5679 92.8649 19.5679C92.4139 19.5679 91.9629 19.6537 91.571 19.8253C91.1737 19.9969 90.8248 20.2328 90.5187 20.5384C90.2127 20.8441 89.9711 21.198 89.8047 21.6055C89.6329 22.0077 89.547 22.4474 89.547 22.9139V34.5123C89.547 34.7482 89.4664 34.9412 89.3054 35.1075C89.1443 35.2683 88.9457 35.3488 88.7094 35.3488C88.4732 35.3488 88.2799 35.2683 88.1135 35.1075C87.9524 34.9466 87.8719 34.7482 87.8719 34.5123V22.9139C87.8719 22.2329 88.0007 21.5841 88.2638 20.9728C88.5269 20.3615 88.8812 19.8306 89.3322 19.3802C89.7832 18.9298 90.3147 18.5759 90.9268 18.3131C91.5388 18.0504 92.1884 17.9217 92.8703 17.9217C93.7347 17.9217 94.5293 18.1255 95.2594 18.5276C95.9896 18.9298 96.5802 19.4767 97.0258 20.1577C97.4929 19.4928 98.0888 18.9566 98.8082 18.5544C99.5276 18.1523 100.322 17.9485 101.187 17.9485C101.868 17.9485 102.513 18.0772 103.119 18.3399C103.721 18.6027 104.247 18.9566 104.698 19.407C105.149 19.8574 105.503 20.3829 105.766 20.9835C106.029 21.5841 106.158 22.2275 106.158 22.9139V34.5123C106.158 34.7482 106.078 34.9412 105.917 35.1075C105.756 35.2683 105.557 35.3488 105.321 35.3488C105.084 35.3488 104.886 35.2683 104.725 35.1075C104.564 34.9466 104.483 34.7482 104.483 34.5123V22.9139C104.392 21.8736 104.032 21.0532 103.404 20.458C102.776 19.8628 102.035 19.5679 101.192 19.5679C100.741 19.5679 100.317 19.6537 99.9249 19.8253C99.5276 19.9969 99.184 20.2274 98.8834 20.5277C98.5881 20.8226 98.3465 21.1765 98.1693 21.5787C97.9922 21.9809 97.8902 22.4259 97.874 22.9139V34.5123C97.874 34.7482 97.7935 34.9412 97.6325 35.1075C97.4714 35.2737 97.2727 35.3488 97.0365 35.3488H97.0258Z" fill="#2A3C8C"/>
<path d="M109.315 29.6273C109.406 30.2011 109.594 30.7373 109.884 31.2306C110.174 31.7239 110.528 32.1529 110.953 32.5122C111.377 32.8714 111.855 33.1556 112.397 33.3594C112.939 33.5685 113.503 33.6704 114.099 33.6704C114.764 33.6704 115.387 33.5471 115.962 33.3058C116.536 33.0645 117.052 32.7267 117.503 32.2923C117.664 32.1315 117.862 32.051 118.098 32.051C118.335 32.051 118.528 32.1315 118.694 32.2923C118.855 32.4532 118.936 32.6516 118.936 32.8875C118.936 33.1235 118.855 33.3165 118.694 33.4827C118.098 34.1476 117.427 34.6195 116.681 34.8983C115.935 35.1772 115.076 35.3166 114.104 35.3166C113.202 35.3166 112.365 35.1557 111.581 34.8286C110.797 34.5069 110.11 34.0565 109.514 33.4827C108.918 32.909 108.451 32.2226 108.107 31.4344C107.763 30.6408 107.592 29.7828 107.592 28.8444C107.592 27.9061 107.758 27.1071 108.091 26.3242C108.424 25.5413 108.886 24.8603 109.471 24.2759C110.056 23.6914 110.749 23.2249 111.548 22.871C112.348 22.5224 113.218 22.3294 114.152 22.2919C115.017 22.2919 115.833 22.4635 116.595 22.8066C117.358 23.1498 118.039 23.6056 118.635 24.1847C119.231 24.7585 119.704 25.4341 120.053 26.2063C120.402 26.9784 120.595 27.8095 120.633 28.6889C120.67 28.9946 120.595 29.2305 120.402 29.3914C120.214 29.5523 120.01 29.6327 119.795 29.6327H109.315V29.6273ZM114.093 23.9917C113.497 23.9917 112.934 24.0936 112.407 24.3027C111.876 24.5118 111.398 24.7906 110.974 25.1392C110.55 25.4877 110.201 25.906 109.922 26.3939C109.643 26.8819 109.449 27.402 109.342 27.9597H118.877C118.77 27.402 118.571 26.8819 118.281 26.3939C117.991 25.906 117.637 25.4877 117.213 25.1392C116.788 24.7906 116.311 24.5118 115.779 24.3027C115.248 24.0989 114.684 23.9917 114.093 23.9917ZM116.66 16.8171C116.858 16.6723 117.068 16.6348 117.293 16.6938C117.519 16.7581 117.685 16.8868 117.792 17.0852C117.9 17.2836 117.932 17.4874 117.889 17.7072C117.846 17.9217 117.723 18.104 117.524 18.2488L113.691 20.4902C113.492 20.5974 113.288 20.6296 113.068 20.5867C112.853 20.5438 112.671 20.4097 112.531 20.1953C112.44 19.9808 112.424 19.7663 112.477 19.5625C112.531 19.3534 112.649 19.1872 112.826 19.0638L116.66 16.8225V16.8171Z" fill="#2A3C8C"/>
<path d="M128.004 22.2919C129.013 22.3294 129.931 22.5868 130.758 23.0587C131.585 23.5359 132.299 24.0989 132.89 24.7424V18.7796C132.89 18.5437 132.97 18.3507 133.131 18.1844C133.292 18.0236 133.491 17.9431 133.727 17.9431C133.963 17.9431 134.157 18.0236 134.323 18.1844C134.484 18.3453 134.565 18.5437 134.565 18.7796V28.8391C134.565 29.7721 134.393 30.6354 134.049 31.429C133.706 32.2226 133.239 32.9036 132.643 33.4774C132.047 34.0511 131.354 34.5015 130.565 34.8233C129.77 35.145 128.933 35.3112 128.052 35.3112C127.172 35.3112 126.281 35.1396 125.486 34.7965C124.691 34.4533 124.004 33.9868 123.419 33.3916C122.834 32.7964 122.372 32.11 122.028 31.3271C121.685 30.5443 121.513 29.7131 121.513 28.8337C121.513 27.9543 121.69 27.091 122.039 26.2974C122.388 25.5038 122.861 24.8121 123.457 24.2223C124.053 23.6271 124.74 23.1552 125.524 22.8066C126.307 22.4581 127.129 22.2811 127.993 22.2811L128.004 22.2919ZM132.89 28.8444C132.852 28.142 132.707 27.4932 132.444 26.9033C132.181 26.3081 131.837 25.7987 131.402 25.3644C130.968 24.9354 130.463 24.5976 129.888 24.3509C129.314 24.1096 128.702 23.9863 128.052 23.9863C127.403 23.9863 126.758 24.1096 126.162 24.3617C125.567 24.6137 125.051 24.9622 124.611 25.4019C124.171 25.8416 123.822 26.3618 123.569 26.9516C123.317 27.5468 123.194 28.1742 123.194 28.8391C123.194 29.504 123.317 30.1314 123.569 30.7158C123.822 31.3003 124.171 31.8151 124.611 32.2548C125.051 32.6945 125.572 33.043 126.162 33.2951C126.758 33.5471 127.387 33.6758 128.052 33.6758C128.718 33.6758 129.346 33.5524 129.931 33.2951C130.517 33.043 131.027 32.6999 131.472 32.2548C131.918 31.8097 132.261 31.3003 132.514 30.7158C132.766 30.1314 132.895 29.504 132.895 28.8391L132.89 28.8444Z" fill="#2A3C8C"/>
<path d="M135.832 19.3534C135.832 19.0477 135.939 18.785 136.159 18.5705C136.374 18.356 136.637 18.2488 136.943 18.2488C137.249 18.2488 137.512 18.356 137.727 18.5705C137.942 18.785 138.049 19.0477 138.049 19.3534C138.049 19.659 137.942 19.9218 137.727 20.1363C137.512 20.3508 137.249 20.458 136.943 20.458C136.637 20.458 136.374 20.3508 136.159 20.1363C135.945 19.9218 135.832 19.659 135.832 19.3534ZM136.106 23.1015C136.106 22.8656 136.186 22.6672 136.347 22.5063C136.508 22.3455 136.707 22.265 136.943 22.265C137.179 22.265 137.373 22.3455 137.539 22.5063C137.7 22.6672 137.781 22.8656 137.781 23.1015V34.5123C137.781 34.7482 137.7 34.9412 137.539 35.1075C137.378 35.2683 137.179 35.3488 136.943 35.3488C136.707 35.3488 136.514 35.2683 136.347 35.1075C136.186 34.9466 136.106 34.7482 136.106 34.5123V23.1015Z" fill="#2A3C8C"/>
<path d="M148.959 25.3108C148.508 24.914 147.998 24.5976 147.418 24.3509C146.843 24.1096 146.22 23.9863 145.555 23.9863C144.889 23.9863 144.261 24.1096 143.676 24.3617C143.09 24.6137 142.575 24.9622 142.135 25.4019C141.695 25.8416 141.346 26.3618 141.093 26.9516C140.841 27.5468 140.717 28.1742 140.717 28.8391C140.717 29.504 140.841 30.1314 141.093 30.7158C141.346 31.3003 141.695 31.8151 142.135 32.2548C142.575 32.6945 143.09 33.043 143.676 33.2951C144.261 33.5471 144.889 33.6758 145.555 33.6758C146.22 33.6758 146.843 33.5524 147.418 33.3111C147.992 33.0698 148.508 32.732 148.959 32.2977C149.12 32.1368 149.318 32.0564 149.555 32.0564C149.791 32.0564 149.989 32.1368 150.15 32.2977C150.312 32.4586 150.387 32.6623 150.381 32.9036C150.371 33.1449 150.269 33.3648 150.07 33.5632C149.909 33.724 149.689 33.9117 149.41 34.1155C149.13 34.3246 148.798 34.5176 148.411 34.6946C148.024 34.8769 147.59 35.0217 147.117 35.1396C146.639 35.2576 146.124 35.3166 145.565 35.3166C144.664 35.3166 143.826 35.1557 143.042 34.8286C142.258 34.5069 141.571 34.0565 140.975 33.4827C140.379 32.909 139.912 32.2226 139.568 31.4344C139.225 30.6408 139.053 29.7828 139.053 28.8444C139.053 27.9061 139.22 27.1071 139.552 26.3242C139.885 25.5413 140.342 24.8604 140.927 24.2759C141.512 23.6914 142.205 23.2249 143.005 22.871C143.804 22.5171 144.674 22.3294 145.608 22.2919C146.151 22.2919 146.65 22.3616 147.106 22.4956C147.568 22.6297 147.981 22.7906 148.347 22.9836C148.717 23.1713 149.044 23.375 149.334 23.5895C149.624 23.804 149.855 23.9917 150.038 24.1579C150.145 24.2491 150.242 24.4153 150.322 24.6566C150.403 24.8979 150.344 25.1177 150.145 25.3161C149.984 25.477 149.785 25.5574 149.549 25.5574C149.313 25.5574 149.12 25.477 148.953 25.3161L148.959 25.3108Z" fill="#2A3C8C"/>
<path d="M158.225 22.2919C159.09 22.2919 159.911 22.4688 160.695 22.8174C161.479 23.1659 162.166 23.6378 162.762 24.233C163.358 24.8282 163.83 25.5199 164.179 26.3081C164.528 27.1017 164.705 27.9436 164.705 28.8444V34.5337C164.705 34.7696 164.625 34.968 164.464 35.1289C164.303 35.2898 164.104 35.3702 163.868 35.3702C163.632 35.3702 163.438 35.2898 163.272 35.1289C163.105 34.968 163.03 34.7696 163.03 34.5337V32.8875C162.434 33.5524 161.72 34.1262 160.883 34.5981C160.045 35.0753 159.138 35.3112 158.166 35.3112C157.264 35.3112 156.421 35.1504 155.643 34.8233C154.864 34.4962 154.172 34.0511 153.576 33.4774C152.98 32.9036 152.513 32.2172 152.169 31.429C151.826 30.6354 151.654 29.7775 151.654 28.8391C151.654 27.9007 151.82 27.1017 152.153 26.3189C152.486 25.536 152.942 24.855 153.533 24.2705C154.118 23.686 154.811 23.2195 155.611 22.8656C156.411 22.5171 157.28 22.324 158.22 22.2865L158.225 22.2919ZM153.334 28.8444C153.334 29.5093 153.458 30.1367 153.715 30.7212C153.968 31.3057 154.311 31.8204 154.757 32.2601C155.197 32.6998 155.713 33.0484 156.298 33.3004C156.883 33.5524 157.506 33.6811 158.177 33.6811C158.848 33.6811 159.439 33.5578 160.013 33.3165C160.588 33.0752 161.098 32.7374 161.538 32.303C161.978 31.8741 162.327 31.3647 162.59 30.7802C162.853 30.1957 162.998 29.5522 163.036 28.8498C163.036 28.1849 162.912 27.5575 162.66 26.9623C162.408 26.3671 162.059 25.8523 161.618 25.4126C161.178 24.9729 160.657 24.6244 160.067 24.3724C159.471 24.1204 158.843 23.997 158.177 23.997C157.511 23.997 156.883 24.1204 156.298 24.3724C155.713 24.6244 155.197 24.9729 154.757 25.4126C154.317 25.8523 153.968 26.3725 153.715 26.9623C153.463 27.5575 153.334 28.1849 153.334 28.8498V28.8444Z" fill="#2A3C8C"/>
<path d="M166.38 35.0485C166.595 34.9573 166.815 34.9734 167.041 35.0914C167.266 35.2093 167.417 35.3809 167.486 35.6169C167.809 36.4802 168.351 37.1826 169.108 37.7349C169.865 38.2819 170.735 38.5607 171.728 38.5607C172.34 38.5607 172.92 38.4427 173.473 38.2121C174.02 37.9762 174.504 37.6598 174.917 37.2523C175.33 36.8502 175.652 36.3783 175.889 35.8367C176.125 35.2951 176.238 34.7106 176.238 34.0833C176.238 33.4559 176.12 32.8929 175.889 32.3459C175.652 31.799 175.33 31.3164 174.917 30.9035C174.504 30.4906 174.02 30.1689 173.473 29.9329C172.925 29.697 172.345 29.5844 171.728 29.5844C171.545 29.5844 171.363 29.6005 171.175 29.638C170.987 29.6756 170.804 29.7077 170.633 29.7345C170.461 29.7614 170.294 29.7614 170.133 29.7345C169.972 29.7077 169.838 29.638 169.725 29.5308C169.564 29.3699 169.478 29.1715 169.468 28.9356C169.457 28.6996 169.532 28.5066 169.698 28.3404L174.316 23.9166H167.97C167.733 23.9166 167.54 23.8362 167.374 23.6753C167.213 23.5144 167.132 23.316 167.132 23.0801C167.132 22.8442 167.213 22.6511 167.374 22.4849C167.535 22.324 167.733 22.2436 167.97 22.2436H176.286C176.683 22.2436 176.941 22.4313 177.07 22.812C177.177 23.1873 177.07 23.5144 176.748 23.7825L172.506 27.9382C173.263 28.0294 173.972 28.2546 174.638 28.6139C175.304 28.9731 175.878 29.4289 176.367 29.9758C176.855 30.5228 177.236 31.1502 177.515 31.8526C177.795 32.5551 177.934 33.3004 177.934 34.0886C177.934 34.9519 177.773 35.7563 177.446 36.5016C177.124 37.247 176.678 37.9011 176.109 38.4588C175.54 39.0165 174.885 39.4562 174.138 39.7779C173.392 40.0996 172.587 40.2659 171.722 40.2659C171.003 40.2659 170.332 40.1533 169.709 39.928C169.086 39.7028 168.523 39.4025 168.023 39.0218C167.519 38.6465 167.089 38.2068 166.729 37.7135C166.37 37.2201 166.096 36.7 165.919 36.1638C165.828 35.9118 165.844 35.6812 165.962 35.4774C166.08 35.2683 166.219 35.1289 166.38 35.0592V35.0485Z" fill="#2A3C8C"/>
<path d="M178.315 28.7908C178.315 28.2331 178.385 27.6862 178.53 27.1446C178.675 26.603 178.911 26.0293 179.234 25.418L183.228 18.3507C183.351 18.1523 183.529 18.0289 183.754 17.9753C183.98 17.9217 184.189 17.9378 184.388 18.0289C184.586 18.1523 184.715 18.3292 184.78 18.5544C184.844 18.7796 184.812 18.9888 184.683 19.1872L182.793 22.56C183.443 22.3455 184.125 22.2382 184.844 22.2382C185.746 22.2382 186.594 22.4098 187.394 22.753C188.194 23.0962 188.892 23.5627 189.488 24.1579C190.084 24.7531 190.551 25.4502 190.895 26.2491C191.238 27.0481 191.405 27.9007 191.405 28.7962C191.405 29.6917 191.233 30.5389 190.895 31.3325C190.551 32.1261 190.084 32.8178 189.488 33.4076C188.892 34.0028 188.194 34.4694 187.394 34.8125C186.594 35.1557 185.741 35.3273 184.844 35.3273C183.947 35.3273 183.099 35.1557 182.304 34.8125C181.51 34.4694 180.817 34.0028 180.227 33.4076C179.631 32.8124 179.164 32.1207 178.82 31.3325C178.477 30.5389 178.305 29.697 178.305 28.7962L178.315 28.7908ZM180.527 26.5548C180.168 27.2411 179.985 27.9865 179.985 28.7962C179.985 29.4772 180.109 30.1153 180.361 30.6997C180.613 31.2842 180.962 31.799 181.403 32.2387C181.843 32.6784 182.358 33.0269 182.943 33.279C183.529 33.531 184.162 33.6543 184.849 33.6543C185.537 33.6543 186.143 33.531 186.739 33.279C187.335 33.0269 187.856 32.6837 188.307 32.2387C188.758 31.799 189.107 31.2842 189.359 30.6997C189.611 30.1153 189.735 29.4825 189.735 28.7962C189.735 28.1098 189.606 27.5039 189.359 26.9087C189.107 26.3135 188.758 25.7934 188.307 25.3429C187.856 24.8925 187.335 24.544 186.739 24.2919C186.143 24.0399 185.515 23.9166 184.849 23.9166C183.985 23.9166 183.185 24.1364 182.444 24.5761C181.703 25.0158 181.064 25.6754 180.527 26.5601V26.5548Z" fill="#2A3C8C"/>
<path d="M197.976 40.2552C197.257 40.2552 196.612 40.1586 196.043 39.971C195.474 39.7833 194.975 39.5366 194.545 39.231C194.116 38.9253 193.745 38.5822 193.439 38.2068C193.133 37.8314 192.881 37.4507 192.682 37.0754C192.537 36.8394 192.505 36.5981 192.575 36.3461C192.645 36.0941 192.79 35.9064 193.005 35.7777C193.219 35.649 193.45 35.6222 193.692 35.6812C193.933 35.7456 194.154 35.9279 194.352 36.2335C194.712 36.9145 195.184 37.44 195.77 37.81C196.355 38.18 197.09 38.3623 197.971 38.3623C198.529 38.3623 199.061 38.2551 199.565 38.0406C200.07 37.8261 200.51 37.5312 200.886 37.1665C201.262 36.7965 201.563 36.3676 201.777 35.8743C201.992 35.3809 202.099 34.8447 202.099 34.271C202.099 33.6972 201.987 33.1878 201.761 32.6945C201.536 32.2012 201.235 31.7615 200.854 31.3861C200.478 31.0108 200.032 30.7051 199.533 30.4853C199.028 30.2601 198.486 30.1475 197.912 30.1475H193.429C193.192 30.1475 192.994 30.067 192.833 29.9062C192.672 29.7453 192.591 29.5469 192.591 29.311V23.1069C192.591 22.871 192.672 22.6726 192.833 22.5117C192.994 22.3508 193.192 22.2704 193.429 22.2704H201.369C201.622 22.2704 201.842 22.3669 202.03 22.5546C202.218 22.7423 202.314 22.9621 202.314 23.2142C202.314 23.4662 202.218 23.686 202.03 23.8737C201.842 24.0614 201.622 24.1579 201.369 24.1579H194.266V28.26H197.858C198.706 28.26 199.501 28.4155 200.247 28.7318C200.993 29.0482 201.643 29.4772 202.191 30.0241C202.738 30.5711 203.179 31.2092 203.501 31.9384C203.823 32.6677 203.989 33.4452 203.989 34.271C203.989 35.0967 203.834 35.8743 203.517 36.6035C203.2 37.3328 202.771 37.9655 202.223 38.5071C201.675 39.0487 201.036 39.4723 200.306 39.7886C199.576 40.105 198.798 40.2605 197.971 40.2605L197.976 40.2552Z" fill="#2A3C8C"/>
<path d="M115.205 17.9646C115.398 17.8252 115.602 17.7823 115.822 17.8466C116.042 17.911 116.203 18.0343 116.311 18.2274C116.418 18.4204 116.445 18.6188 116.402 18.8333C116.359 19.0424 116.241 19.2194 116.048 19.3588L112.316 21.5358C112.123 21.6431 111.924 21.6699 111.71 21.627C111.5 21.5841 111.323 21.4554 111.183 21.2463C111.098 21.0371 111.076 20.8334 111.13 20.6296C111.183 20.4312 111.296 20.265 111.473 20.1416L115.205 17.9646Z" fill="#2A3C8C"/>
</svg>
