<svg width="116" height="40" viewBox="0 0 116 40" fill="none" xmlns="http://www.w3.org/2000/svg">
<rect width="116" height="40" rx="8" fill="black"/>
<path d="M13.6371 11.434L22.3771 20.005L13.7021 28.655C13.5602 28.4702 13.45 28.263 13.3761 28.042C13.3379 27.7918 13.3379 27.5372 13.3761 27.287V12.567C13.3501 12.172 13.4411 11.777 13.6361 11.434M26.1421 16.267L23.2891 19.093L14.6531 10.6C14.9331 10.503 15.2331 10.476 15.5261 10.522C15.9861 10.648 16.4251 10.842 16.8281 11.095L24.6441 15.42C25.1521 15.693 25.6471 15.98 26.1421 16.267ZM23.2901 20.93L26.1291 23.718L24.0711 24.864L17.7921 28.354C17.2721 28.641 16.7501 28.915 16.2421 29.228C16.0247 29.3633 15.781 29.4507 15.5271 29.4844C15.2733 29.518 15.0152 29.4971 14.7701 29.423L23.2901 20.93ZM30.6501 20.005C30.6574 20.3547 30.569 20.6997 30.3945 21.0028C30.2201 21.306 29.9661 21.5557 29.6601 21.725L27.3141 23.027L24.2271 20.005L27.3271 16.931C28.1221 17.374 28.9041 17.817 29.6851 18.234C29.9966 18.4081 30.2524 18.6668 30.423 18.9802C30.5936 19.2936 30.673 19.6489 30.6501 20.005Z" fill="white"/>
<path d="M41.768 19.548H44.744C45.608 19.5587 46.2373 19.3827 46.632 19.02C47.0373 18.6573 47.24 18.1347 47.24 17.452C47.24 16.7693 47.0373 16.252 46.632 15.9C46.2373 15.5373 45.608 15.356 44.744 15.356H41.768V19.548ZM40.248 14.076H45.256C46.408 14.076 47.2773 14.3747 47.864 14.972C48.4613 15.5587 48.76 16.3853 48.76 17.452C48.76 18.5187 48.4613 19.3507 47.864 19.948C47.2773 20.5453 46.408 20.8387 45.256 20.828H41.768V25.5H40.248V14.076ZM50.479 14.076H51.839V25.5H50.479V14.076ZM61.2739 25.468C61.0392 25.6067 60.7139 25.676 60.2979 25.676C59.9459 25.676 59.6632 25.58 59.4499 25.388C59.2472 25.1853 59.1459 24.86 59.1459 24.412C58.7725 24.86 58.3352 25.1853 57.8339 25.388C57.3432 25.58 56.8099 25.676 56.2339 25.676C55.8605 25.676 55.5032 25.6333 55.1619 25.548C54.8312 25.4627 54.5432 25.3293 54.2979 25.148C54.0525 24.9667 53.8552 24.732 53.7059 24.444C53.5672 24.1453 53.4979 23.788 53.4979 23.372C53.4979 22.9027 53.5779 22.5187 53.7379 22.22C53.8979 21.9213 54.1059 21.6813 54.3619 21.5C54.6285 21.308 54.9272 21.164 55.2579 21.068C55.5992 20.972 55.9459 20.892 56.2979 20.828C56.6712 20.7533 57.0232 20.7 57.3539 20.668C57.6952 20.6253 57.9939 20.572 58.2499 20.508C58.5059 20.4333 58.7085 20.332 58.8579 20.204C59.0072 20.0653 59.0819 19.868 59.0819 19.612C59.0819 19.3133 59.0232 19.0733 58.9059 18.892C58.7992 18.7107 58.6552 18.572 58.4739 18.476C58.3032 18.38 58.1059 18.316 57.8819 18.284C57.6685 18.252 57.4552 18.236 57.2419 18.236C56.6659 18.236 56.1859 18.348 55.8019 18.572C55.4179 18.7853 55.2099 19.196 55.1779 19.804H53.8179C53.8392 19.292 53.9459 18.86 54.1379 18.508C54.3299 18.156 54.5859 17.8733 54.9059 17.66C55.2259 17.436 55.5885 17.276 55.9939 17.18C56.4099 17.084 56.8525 17.036 57.3219 17.036C57.6952 17.036 58.0632 17.0627 58.4259 17.116C58.7992 17.1693 59.1352 17.2813 59.4339 17.452C59.7325 17.612 59.9725 17.8413 60.1539 18.14C60.3352 18.4387 60.4259 18.828 60.4259 19.308V23.564C60.4259 23.884 60.4419 24.1187 60.4739 24.268C60.5165 24.4173 60.6445 24.492 60.8579 24.492C60.9752 24.492 61.1139 24.4653 61.2739 24.412V25.468ZM59.0659 21.228C58.8952 21.356 58.6712 21.452 58.3939 21.516C58.1165 21.5693 57.8232 21.6173 57.5139 21.66C57.2152 21.692 56.9112 21.7347 56.6019 21.788C56.2925 21.8307 56.0152 21.9053 55.7699 22.012C55.5245 22.1187 55.3219 22.2733 55.1619 22.476C55.0125 22.668 54.9379 22.9347 54.9379 23.276C54.9379 23.5 54.9805 23.692 55.0659 23.852C55.1619 24.0013 55.2792 24.124 55.4179 24.22C55.5672 24.316 55.7379 24.3853 55.9299 24.428C56.1219 24.4707 56.3245 24.492 56.5379 24.492C56.9859 24.492 57.3699 24.4333 57.6899 24.316C58.0099 24.188 58.2712 24.0333 58.4739 23.852C58.6765 23.66 58.8259 23.4573 58.9219 23.244C59.0179 23.02 59.0659 22.812 59.0659 22.62V21.228ZM65.7876 26.604C65.6276 27.0093 65.4676 27.3507 65.3076 27.628C65.1583 27.9053 64.9876 28.1293 64.7956 28.3C64.6143 28.4813 64.4063 28.6093 64.1716 28.684C63.9476 28.7693 63.6863 28.812 63.3876 28.812C63.2276 28.812 63.0676 28.8013 62.9076 28.78C62.7476 28.7587 62.593 28.7213 62.4436 28.668V27.42C62.561 27.4733 62.6943 27.516 62.8436 27.548C63.0036 27.5907 63.137 27.612 63.2436 27.612C63.521 27.612 63.7503 27.5427 63.9316 27.404C64.1236 27.276 64.2676 27.0893 64.3636 26.844L64.9236 25.452L61.6436 17.228H63.1796L65.5956 23.996H65.6276L67.9476 17.228H69.3876L65.7876 26.604ZM71.3716 22.892C71.3823 23.1907 71.4516 23.4467 71.5796 23.66C71.7076 23.8627 71.873 24.028 72.0756 24.156C72.289 24.2733 72.5236 24.3587 72.7796 24.412C73.0463 24.4653 73.3183 24.492 73.5956 24.492C73.809 24.492 74.033 24.476 74.2676 24.444C74.5023 24.412 74.7156 24.3533 74.9076 24.268C75.1103 24.1827 75.2756 24.06 75.4036 23.9C75.5316 23.7293 75.5956 23.516 75.5956 23.26C75.5956 22.908 75.4623 22.6413 75.1956 22.46C74.929 22.2787 74.593 22.1347 74.1876 22.028C73.793 21.9107 73.361 21.8093 72.8916 21.724C72.4223 21.628 71.985 21.5 71.5796 21.34C71.185 21.1693 70.8543 20.9347 70.5876 20.636C70.321 20.3373 70.1876 19.9213 70.1876 19.388C70.1876 18.972 70.2783 18.6147 70.4596 18.316C70.6516 18.0173 70.8916 17.7773 71.1796 17.596C71.4783 17.404 71.809 17.2653 72.1716 17.18C72.545 17.084 72.913 17.036 73.2756 17.036C73.745 17.036 74.177 17.0787 74.5716 17.164C74.9663 17.2387 75.313 17.3773 75.6116 17.58C75.921 17.772 76.1663 18.0387 76.3476 18.38C76.529 18.7107 76.6356 19.1267 76.6676 19.628H75.3076C75.2863 19.3613 75.217 19.1427 75.0996 18.972C74.9823 18.7907 74.833 18.6467 74.6516 18.54C74.4703 18.4333 74.2676 18.3587 74.0436 18.316C73.8303 18.2627 73.6116 18.236 73.3876 18.236C73.185 18.236 72.977 18.252 72.7636 18.284C72.561 18.316 72.3743 18.3747 72.2036 18.46C72.033 18.5347 71.8943 18.6413 71.7876 18.78C71.681 18.908 71.6276 19.0787 71.6276 19.292C71.6276 19.5267 71.7076 19.724 71.8676 19.884C72.0383 20.0333 72.2516 20.1613 72.5076 20.268C72.7636 20.364 73.0516 20.4493 73.3716 20.524C73.6916 20.588 74.0116 20.6573 74.3316 20.732C74.673 20.8067 75.0036 20.8973 75.3236 21.004C75.6543 21.1107 75.9423 21.2547 76.1876 21.436C76.4436 21.6067 76.6463 21.8253 76.7956 22.092C76.9556 22.3587 77.0356 22.6893 77.0356 23.084C77.0356 23.5853 76.929 24.0013 76.7156 24.332C76.513 24.6627 76.241 24.9293 75.8996 25.132C75.569 25.3347 75.1903 25.4733 74.7636 25.548C74.3476 25.6333 73.9316 25.676 73.5156 25.676C73.057 25.676 72.6196 25.628 72.2036 25.532C71.7876 25.436 71.4196 25.2813 71.0996 25.068C70.7796 24.844 70.5236 24.556 70.3316 24.204C70.1396 23.8413 70.033 23.404 70.0116 22.892H71.3716ZM80.4276 17.228H82.0756V18.428H80.4276V23.564C80.4276 23.724 80.4383 23.852 80.4596 23.948C80.4916 24.044 80.545 24.1187 80.6196 24.172C80.6943 24.2253 80.7956 24.2627 80.9236 24.284C81.0623 24.2947 81.2383 24.3 81.4516 24.3H82.0756V25.5H81.0356C80.6836 25.5 80.3796 25.4787 80.1236 25.436C79.8783 25.3827 79.6756 25.292 79.5156 25.164C79.3663 25.036 79.2543 24.8547 79.1796 24.62C79.105 24.3853 79.0676 24.076 79.0676 23.692V18.428H77.6596V17.228H79.0676V14.748H80.4276V17.228ZM84.5785 21.372C84.5785 21.8733 84.6425 22.3213 84.7705 22.716C84.9092 23.1 85.0958 23.4253 85.3305 23.692C85.5652 23.948 85.8372 24.1453 86.1465 24.284C86.4665 24.4227 86.8025 24.492 87.1545 24.492C87.5065 24.492 87.8372 24.4227 88.1465 24.284C88.4665 24.1453 88.7438 23.948 88.9785 23.692C89.2132 23.4253 89.3945 23.1 89.5225 22.716C89.6612 22.3213 89.7305 21.8733 89.7305 21.372C89.7305 20.8707 89.6612 20.428 89.5225 20.044C89.3945 19.6493 89.2132 19.3187 88.9785 19.052C88.7438 18.7853 88.4665 18.5827 88.1465 18.444C87.8372 18.3053 87.5065 18.236 87.1545 18.236C86.8025 18.236 86.4665 18.3053 86.1465 18.444C85.8372 18.5827 85.5652 18.7853 85.3305 19.052C85.0958 19.3187 84.9092 19.6493 84.7705 20.044C84.6425 20.428 84.5785 20.8707 84.5785 21.372ZM83.1385 21.372C83.1385 20.764 83.2238 20.1987 83.3945 19.676C83.5652 19.1427 83.8212 18.684 84.1625 18.3C84.5038 17.9053 84.9252 17.596 85.4265 17.372C85.9278 17.148 86.5038 17.036 87.1545 17.036C87.8158 17.036 88.3918 17.148 88.8825 17.372C89.3838 17.596 89.8052 17.9053 90.1465 18.3C90.4878 18.684 90.7438 19.1427 90.9145 19.676C91.0852 20.1987 91.1705 20.764 91.1705 21.372C91.1705 21.98 91.0852 22.5453 90.9145 23.068C90.7438 23.5907 90.4878 24.0493 90.1465 24.444C89.8052 24.828 89.3838 25.132 88.8825 25.356C88.3918 25.5693 87.8158 25.676 87.1545 25.676C86.5038 25.676 85.9278 25.5693 85.4265 25.356C84.9252 25.132 84.5038 24.828 84.1625 24.444C83.8212 24.0493 83.5652 23.5907 83.3945 23.068C83.2238 22.5453 83.1385 21.98 83.1385 21.372ZM92.726 17.228H94.006V18.972H94.038C94.3687 18.3 94.774 17.804 95.254 17.484C95.734 17.164 96.342 17.0147 97.078 17.036V18.476C96.534 18.476 96.07 18.5507 95.686 18.7C95.302 18.8493 94.9927 19.068 94.758 19.356C94.5233 19.644 94.3527 19.996 94.246 20.412C94.1393 20.8173 94.086 21.2867 94.086 21.82V25.5H92.726V17.228ZM103.565 20.572C103.544 20.252 103.469 19.948 103.341 19.66C103.224 19.372 103.058 19.1267 102.845 18.924C102.642 18.7107 102.397 18.5453 102.109 18.428C101.832 18.3 101.522 18.236 101.181 18.236C100.829 18.236 100.509 18.3 100.221 18.428C99.9435 18.5453 99.7035 18.7107 99.5009 18.924C99.2982 19.1373 99.1382 19.388 99.0209 19.676C98.9035 19.9533 98.8342 20.252 98.8129 20.572H103.565ZM104.877 22.876C104.696 23.804 104.296 24.5027 103.677 24.972C103.058 25.4413 102.28 25.676 101.341 25.676C100.68 25.676 100.104 25.5693 99.6129 25.356C99.1329 25.1427 98.7275 24.844 98.3969 24.46C98.0662 24.076 97.8155 23.6173 97.6449 23.084C97.4849 22.5507 97.3942 21.9693 97.3729 21.34C97.3729 20.7107 97.4689 20.1347 97.6609 19.612C97.8529 19.0893 98.1195 18.636 98.4609 18.252C98.8129 17.868 99.2235 17.5693 99.6929 17.356C100.173 17.1427 100.696 17.036 101.261 17.036C101.997 17.036 102.605 17.1907 103.085 17.5C103.576 17.7987 103.965 18.1827 104.253 18.652C104.552 19.1213 104.754 19.6333 104.861 20.188C104.978 20.7427 105.026 21.2707 105.005 21.772H98.8129C98.8022 22.1347 98.8449 22.4813 98.9409 22.812C99.0369 23.132 99.1915 23.42 99.4049 23.676C99.6182 23.9213 99.8902 24.1187 100.221 24.268C100.552 24.4173 100.941 24.492 101.389 24.492C101.965 24.492 102.434 24.3587 102.797 24.092C103.17 23.8253 103.416 23.42 103.533 22.876H104.877Z" fill="white"/>
</svg>
