<svg width="51" height="60" viewBox="0 0 51 60" fill="none" xmlns="http://www.w3.org/2000/svg">
<path fill-rule="evenodd" clip-rule="evenodd" d="M50.7624 36.8341V50.2342C50.6926 50.6096 49.2108 59.5 43.1118 59.5C41.2327 59.5 39.2194 58.5992 37.1256 56.8082L32.2507 52.0788H11.9242C5.34737 52.0788 0 45.8158 0 38.1264V36.8341H0.783851V16.1254C0.783851 8.85967 5.78225 2.95056 11.9242 2.95056H14.9898C15.2636 2.83259 15.5535 2.661 15.7576 2.56448L16.8635 1.94783C17.7494 1.33118 18.7104 0.89148 19.7681 0.666269C20.6701 0.473231 21.572 0.44642 22.474 0.596561C23.2525 0.719891 23.6981 1.17568 23.7679 1.96391C23.7732 2.06043 23.784 2.15159 23.784 2.24811C23.8055 2.48405 23.8216 2.71998 23.8323 2.95056C23.8806 3.73343 23.8806 4.51631 23.8377 5.29919C23.8216 5.65845 23.8001 6.01236 23.7679 6.37162C23.6981 7.15986 23.1988 7.66391 22.3881 7.73361C21.878 7.78187 21.3841 7.79796 20.9009 7.76579C19.0379 7.67999 17.3414 7.04726 15.9723 5.51367C15.9025 5.44397 15.8327 5.37426 15.7468 5.30455H11.9296C7.07614 5.30455 3.13541 10.1573 3.13541 16.1308V36.8395H3.91926V38.1318C3.91926 43.6709 7.50564 48.1751 11.9296 48.1751H33.8398L39.7724 53.9287C41.0448 55.0065 42.2099 55.5964 43.1172 55.5964C45.1842 55.5964 46.462 51.816 46.8646 49.757V36.8449H47.6485V16.1254C47.6485 10.152 43.697 5.29919 38.849 5.29919H36.1323C35.7404 5.41715 35.2465 5.61019 35.021 5.71207L33.9257 6.32872C33.0399 6.94001 32.0788 7.38507 31.0212 7.61028C30.3286 7.76043 29.636 7.80868 28.9434 7.7497C28.7341 7.73361 28.53 7.71217 28.3153 7.67999C27.5368 7.54594 27.0858 7.09015 27.016 6.30191C26.9838 5.9641 26.9623 5.62628 26.9462 5.29382C26.914 4.51095 26.914 3.72807 26.9516 2.94519C26.9677 2.70926 26.9784 2.47332 26.9999 2.24275C27.0053 2.12478 27.016 2.01754 27.0214 1.90493C27.0912 1.11669 27.5959 0.612647 28.3905 0.542939C30.8601 0.32309 33.0775 0.837859 34.817 2.75752C34.8706 2.82722 34.9404 2.89157 35.0156 2.94519H38.8543C45.007 2.94519 50.0054 8.85431 50.0054 16.1201L49.9947 36.8288H50.7732L50.7624 36.8341Z" fill="#0056FF"/>
<path d="M37.1417 20.3454C35.9122 19.4767 34.4089 19.1014 32.9164 19.2944C31.2574 19.5089 29.7595 20.4097 28.7931 21.7717L25.2926 26.7049L21.9264 21.5787C21.0136 20.1845 19.5426 19.2301 17.8997 18.9566C16.4125 18.7099 14.8985 19.0317 13.6369 19.8574C10.8773 21.6645 10.0988 25.3805 11.9135 28.142L20.0204 40.4857C20.4553 41.156 21.0244 41.719 21.6686 42.1534C21.7062 42.1855 21.7492 42.2123 21.7921 42.2391C22.7854 42.9094 23.945 43.258 25.1316 43.258C25.3839 43.258 25.6416 43.2419 25.8993 43.2097C27.5529 42.9952 29.0562 42.0944 30.0226 40.7324L38.5698 28.6889C40.4811 25.9971 39.8368 22.2597 37.147 20.3508L37.1417 20.3454ZM26.9945 33.043C27.322 33.5417 27.4402 34.1423 27.3167 34.7267C27.1932 35.3166 26.8496 35.8206 26.3503 36.1477C25.8778 36.4587 25.2872 36.5767 24.7504 36.4855C24.4497 36.4373 24.1598 36.3247 23.8967 36.1584L23.8645 36.137C22.8659 35.4185 22.635 34.0189 23.3491 33.0162L25.2336 30.3566L26.9945 33.043ZM37.1041 27.6433L30.9514 36.3086L28.5569 39.6868C27.8804 40.6412 26.8281 41.2686 25.6684 41.4187C24.6322 41.5528 23.5961 41.3008 22.7424 40.7056C22.7317 40.7002 22.7209 40.6948 22.7102 40.6841C22.7048 40.6788 22.6941 40.6734 22.6887 40.668C22.227 40.3624 21.8297 39.9602 21.5237 39.4937L19.2741 36.0619L13.4221 27.15C12.1551 25.2196 12.6919 22.6136 14.6301 21.3481C15.5106 20.769 16.5736 20.5438 17.6152 20.7207C18.7695 20.9138 19.7949 21.5787 20.4338 22.5546L24.1813 28.2653L24.4014 28.6031L21.9639 32.0349C21.6472 32.4854 21.427 32.984 21.3197 33.5149C21.0083 35.0431 21.6257 36.6089 22.8874 37.5044C22.9196 37.5258 22.9518 37.5472 22.984 37.5687C23.435 37.8583 23.9397 38.0513 24.4658 38.1371C24.6806 38.1746 24.8953 38.1907 25.1101 38.1907C25.8778 38.1907 26.6241 37.9655 27.263 37.5472C28.5408 36.7107 29.2226 35.1879 28.9971 33.6758C28.9112 33.1127 28.7126 32.5819 28.3958 32.1046L26.1087 28.6246L26.3395 28.2975L30.2481 22.7905C30.9245 21.8361 31.9768 21.2033 33.1365 21.0532C34.1834 20.9191 35.2357 21.1819 36.0947 21.7932C37.9792 23.1284 38.4302 25.7505 37.0933 27.6326L37.1041 27.6433Z" fill="#23DBE1"/>
<path d="M25.3034 21.0693C27.773 21.0693 29.7863 19.0585 29.7863 16.5919C29.7863 14.1253 27.773 12.1145 25.3034 12.1145C22.8337 12.1145 20.8204 14.1253 20.8204 16.5919C20.8204 19.0585 22.8337 21.0693 25.3034 21.0693ZM25.3034 13.6052C26.9516 13.6052 28.2938 14.9457 28.2938 16.5919C28.2938 18.2381 26.9516 19.5786 25.3034 19.5786C23.6551 19.5786 22.3129 18.2381 22.3129 16.5919C22.3129 14.9457 23.6551 13.6052 25.3034 13.6052Z" fill="#23DBE1"/>
</svg>
