<svg width="20" height="21" viewBox="0 0 20 21" fill="none" xmlns="http://www.w3.org/2000/svg">
<rect y="0.5" width="20" height="20" rx="10" fill="#C46C9B"/>
<path d="M16.1224 7.71636L8.62243 15.2164C8.55711 15.2819 8.47949 15.3339 8.39403 15.3694C8.30856 15.4049 8.21693 15.4232 8.12439 15.4232C8.03185 15.4232 7.94022 15.4049 7.85475 15.3694C7.76928 15.3339 7.69166 15.2819 7.62634 15.2164L4.34509 11.9351C4.27969 11.8697 4.22781 11.7921 4.19241 11.7066C4.15701 11.6211 4.13879 11.5296 4.13879 11.4371C4.13879 11.3446 4.15701 11.253 4.19241 11.1675C4.22781 11.0821 4.27969 11.0044 4.34509 10.939C4.4105 10.8736 4.48814 10.8217 4.5736 10.7863C4.65905 10.7509 4.75064 10.7327 4.84314 10.7327C4.93563 10.7327 5.02722 10.7509 5.11268 10.7863C5.19813 10.8217 5.27578 10.8736 5.34119 10.939L8.12497 13.7228L15.1275 6.72143C15.2596 6.58934 15.4388 6.51514 15.6256 6.51514C15.8124 6.51514 15.9915 6.58934 16.1236 6.72143C16.2557 6.85352 16.3299 7.03268 16.3299 7.21948C16.3299 7.40629 16.2557 7.58544 16.1236 7.71753L16.1224 7.71636Z" fill="white"/>
</svg>
