<svg width="43" height="42" viewBox="0 0 43 42" fill="none" xmlns="http://www.w3.org/2000/svg">
<g clip-path="url(#clip0_17_123)">
<path d="M35.5068 18.6826C36.5732 19.1885 37.5371 19.8242 38.3984 20.5898C39.2598 21.3555 39.998 22.2236 40.6133 23.1943C41.2285 24.165 41.6934 25.2041 42.0078 26.3115C42.3223 27.4189 42.4863 28.5674 42.5 29.7568C42.5 31.4385 42.1787 33.0244 41.5361 34.5146C40.8936 36.0049 40.0186 37.3037 38.9111 38.4111C37.8037 39.5186 36.5049 40.3936 35.0146 41.0361C33.5244 41.6787 31.9385 42 30.2568 42C29.0674 42 27.9189 41.8359 26.8115 41.5078C25.7041 41.1797 24.6719 40.7148 23.7148 40.1133C22.7578 39.5117 21.8896 38.7803 21.1104 37.9189C20.3311 37.0576 19.6885 36.0869 19.1826 35.0068H0.5V3.50684H7.49316V0H11V3.50684H25.0068V0H28.4932V3.50684H35.5068V18.6826ZM4.00684 10.5H32V6.99316H4.00684V10.5ZM18.1162 31.5C18.0342 30.9258 17.9932 30.3447 17.9932 29.7568C17.9932 28.0615 18.3145 26.4688 18.957 24.9785C19.5996 23.4883 20.4746 22.1895 21.582 21.082C22.6895 19.9746 23.9883 19.0996 25.4785 18.457C26.9688 17.8145 28.5615 17.4932 30.2568 17.4932C30.8447 17.4932 31.4258 17.5342 32 17.6162V14.0068H4.00684V31.5H18.1162ZM30.2568 38.4932C31.46 38.4932 32.5879 38.2676 33.6406 37.8164C34.6934 37.3652 35.623 36.7363 36.4297 35.9297C37.2363 35.123 37.8584 34.2002 38.2959 33.1611C38.7334 32.1221 38.9658 30.9873 38.9932 29.7568C38.9932 28.5537 38.7676 27.4189 38.3164 26.3525C37.8652 25.2861 37.2432 24.3564 36.4502 23.5635C35.6572 22.7705 34.7275 22.1484 33.6611 21.6973C32.5947 21.2461 31.46 21.0137 30.2568 21C29.04 21 27.9053 21.2256 26.8525 21.6768C25.7998 22.1279 24.8701 22.7568 24.0635 23.5635C23.2568 24.3701 22.6348 25.2998 22.1973 26.3525C21.7598 27.4053 21.5273 28.54 21.5 29.7568C21.5 30.9736 21.7256 32.1084 22.1768 33.1611C22.6279 34.2139 23.2568 35.1367 24.0635 35.9297C24.8701 36.7227 25.7998 37.3447 26.8525 37.7959C27.9053 38.2471 29.04 38.4795 30.2568 38.4932ZM32 27.9932H35.5068V31.5H28.4932V24.5068H32V27.9932Z" fill="#3F5097"/>
</g>
<defs>
<clipPath id="clip0_17_123">
<rect width="42" height="42" fill="white" transform="translate(0.5)"/>
</clipPath>
</defs>
</svg>
