<svg width="45" height="45" viewBox="0 0 45 45" fill="none" xmlns="http://www.w3.org/2000/svg">
<path d="M15.2678 6.42856C13.3497 6.42856 11.5102 7.19051 10.1539 8.5468C8.79762 9.90309 8.03566 11.7426 8.03566 13.6607C8.03566 15.5788 8.79762 17.4183 10.1539 18.7746C11.5102 20.1309 13.3497 20.8928 15.2678 20.8928C17.1859 20.8928 19.0254 20.1309 20.3817 18.7746C21.738 17.4183 22.4999 15.5788 22.4999 13.6607C22.4999 11.7426 21.738 9.90309 20.3817 8.5468C19.0254 7.19051 17.1859 6.42856 15.2678 6.42856ZM10.4464 13.6607C10.4464 13.0275 10.5711 12.4006 10.8134 11.8156C11.0557 11.2307 11.4108 10.6991 11.8585 10.2514C12.3063 9.80373 12.8378 9.44858 13.4227 9.20628C14.0077 8.96398 14.6346 8.83927 15.2678 8.83927C15.901 8.83927 16.5279 8.96398 17.1129 9.20628C17.6978 9.44858 18.2294 9.80373 18.6771 10.2514C19.1248 10.6991 19.4799 11.2307 19.7222 11.8156C19.9645 12.4006 20.0892 13.0275 20.0892 13.6607C20.0892 14.9394 19.5813 16.1658 18.6771 17.07C17.7729 17.9742 16.5465 18.4821 15.2678 18.4821C13.9891 18.4821 12.7627 17.9742 11.8585 17.07C10.9543 16.1658 10.4464 14.9394 10.4464 13.6607ZM32.1428 9.64284C31.4041 9.64284 30.6727 9.78834 29.9902 10.071C29.3078 10.3537 28.6877 10.768 28.1653 11.2904C27.643 11.8127 27.2287 12.4328 26.946 13.1153C26.6633 13.7977 26.5178 14.5292 26.5178 15.2678C26.5178 16.0065 26.6633 16.738 26.946 17.4204C27.2287 18.1029 27.643 18.723 28.1653 19.2453C28.6877 19.7676 29.3078 20.182 29.9902 20.4647C30.6727 20.7474 31.4041 20.8928 32.1428 20.8928C33.6346 20.8928 35.0654 20.3002 36.1203 19.2453C37.1752 18.1904 37.7678 16.7597 37.7678 15.2678C37.7678 13.776 37.1752 12.3453 36.1203 11.2904C35.0654 10.2355 33.6346 9.64284 32.1428 9.64284ZM28.9285 15.2678C28.9285 14.4154 29.2672 13.5978 29.87 12.995C30.4728 12.3922 31.2903 12.0536 32.1428 12.0536C32.9953 12.0536 33.8129 12.3922 34.4156 12.995C35.0184 13.5978 35.3571 14.4154 35.3571 15.2678C35.3571 16.1203 35.0184 16.9379 34.4156 17.5407C33.8129 18.1435 32.9953 18.4821 32.1428 18.4821C31.2903 18.4821 30.4728 18.1435 29.87 17.5407C29.2672 16.9379 28.9285 16.1203 28.9285 15.2678ZM6.8303 24.1071C5.87126 24.1071 4.9515 24.4881 4.27336 25.1663C3.59521 25.8444 3.21423 26.7642 3.21423 27.7232V28.5766C3.21546 28.7067 3.22459 28.8366 3.24155 28.9655C3.26888 29.2114 3.3203 29.5489 3.41834 29.9491C3.68456 31.0043 4.15823 31.9959 4.81173 32.8661C6.44138 35.0405 9.54959 36.9643 15.2678 36.9643C17.7283 36.9643 19.7067 36.6075 21.2898 36.0289C21.0802 35.2308 20.9531 34.4133 20.9105 33.5893C19.5669 34.1598 17.7444 34.5536 15.2678 34.5536C10.1378 34.5536 7.82191 32.8612 6.7403 31.4196C6.28057 30.8062 5.94733 30.1075 5.75995 29.3641C5.69218 29.0963 5.64755 28.8231 5.62655 28.5477L5.62495 28.5187V27.7232C5.62495 27.4035 5.75194 27.0969 5.97799 26.8709C6.20404 26.6448 6.51062 26.5178 6.8303 26.5178H22.7491C23.2782 25.6796 23.9086 24.9099 24.6262 24.2261C24.3255 24.1479 24.016 24.1079 23.7053 24.1071H6.8303ZM22.4999 32.9464C22.4999 35.717 23.6005 38.3741 25.5596 40.3332C27.5187 42.2922 30.1758 43.3928 32.9464 43.3928C35.7169 43.3928 38.374 42.2922 40.3331 40.3332C42.2922 38.3741 43.3928 35.717 43.3928 32.9464C43.3928 30.1759 42.2922 27.5188 40.3331 25.5597C38.374 23.6006 35.7169 22.5 32.9464 22.5C30.1758 22.5 27.5187 23.6006 25.5596 25.5597C23.6005 27.5188 22.4999 30.1759 22.4999 32.9464ZM31.0966 26.3893C32.5026 25.9666 34.011 26.0379 35.3708 26.5914C36.7307 27.1449 37.8602 28.1472 38.5714 29.4316V28.125C38.5714 27.9119 38.656 27.7075 38.8067 27.5568C38.9574 27.4061 39.1618 27.3214 39.3749 27.3214C39.5881 27.3214 39.7925 27.4061 39.9432 27.5568C40.0939 27.7075 40.1785 27.9119 40.1785 28.125V31.3393C40.1785 31.5524 40.0939 31.7568 39.9432 31.9075C39.7925 32.0582 39.5881 32.1428 39.3749 32.1428H36.1607C35.9475 32.1428 35.7431 32.0582 35.5924 31.9075C35.4417 31.7568 35.3571 31.5524 35.3571 31.3393C35.3571 31.1262 35.4417 30.9218 35.5924 30.7711C35.7431 30.6204 35.9475 30.5357 36.1607 30.5357H37.3291C37.0055 29.8283 36.5154 29.2098 35.9007 28.733C35.2861 28.2562 34.5651 27.9353 33.7995 27.7977C33.0339 27.6601 32.2463 27.71 31.5041 27.9431C30.7619 28.1761 30.0872 28.5854 29.5376 29.1359C29.3861 29.2823 29.1831 29.3633 28.9724 29.3614C28.7617 29.3596 28.5602 29.2751 28.4112 29.1261C28.2622 28.9771 28.1777 28.7756 28.1758 28.5649C28.174 28.3542 28.255 28.1512 28.4014 27.9996C29.1527 27.2478 30.0787 26.6955 31.0966 26.3893ZM34.7962 39.502C33.3903 39.9248 31.8821 39.8537 30.5222 39.3005C29.1624 38.7473 28.0328 37.7454 27.3214 36.4612V37.7695C27.3214 37.9826 27.2367 38.187 27.086 38.3377C26.9353 38.4884 26.7309 38.573 26.5178 38.573C26.3047 38.573 26.1003 38.4884 25.9496 38.3377C25.7989 38.187 25.7142 37.9826 25.7142 37.7695V34.5552C25.7142 34.342 25.7989 34.1377 25.9496 33.987C26.1003 33.8363 26.3047 33.7516 26.5178 33.7516H29.7321C29.9452 33.7516 30.1496 33.8363 30.3003 33.987C30.451 34.1377 30.5357 34.342 30.5357 34.5552C30.5357 34.7683 30.451 34.9727 30.3003 35.1234C30.1496 35.2741 29.9452 35.3587 29.7321 35.3587H28.5637C28.8873 36.0661 29.3774 36.6847 29.992 37.1615C30.6066 37.6383 31.3276 37.9592 32.0932 38.0967C32.8589 38.2343 33.6465 38.1844 34.3886 37.9514C35.1308 37.7184 35.8055 37.3091 36.3551 36.7586C36.5067 36.6122 36.7097 36.5312 36.9204 36.533C37.1311 36.5348 37.3326 36.6194 37.4816 36.7683C37.6306 36.9173 37.7151 37.1189 37.7169 37.3296C37.7187 37.5403 37.6378 37.7433 37.4914 37.8948C36.7401 38.6467 35.814 39.2005 34.7962 39.5068" fill="#3F5097"/>
</svg>
