<svg width="43" height="43" viewBox="0 0 43 43" fill="none" xmlns="http://www.w3.org/2000/svg">
<path fill-rule="evenodd" clip-rule="evenodd" d="M8.02131 18.7785C11.5077 26.3681 17.7005 32.3838 25.3879 35.6488L26.746 36.2544C28.1553 36.8822 29.7378 37.0058 31.2275 36.6045C32.7173 36.2032 34.0235 35.3014 34.9268 34.0506L37.2093 30.8919C37.6794 30.2412 37.882 29.4349 37.7754 28.6393C37.6687 27.8436 37.2609 27.1192 36.636 26.6152L32.6496 23.3992C32.3207 23.1341 31.9417 22.9381 31.5352 22.8231C31.1287 22.7081 30.7032 22.6765 30.2842 22.73C29.8652 22.7836 29.4614 22.9212 29.0969 23.1347C28.7324 23.3482 28.4148 23.6332 28.1632 23.9725L27.2728 25.1729C23.3389 23.1423 20.1347 19.9374 18.1048 16.0032L19.3052 15.1145C20.735 14.0538 20.9966 12.0149 19.8786 10.6264L16.6589 6.63992C16.155 6.01552 15.431 5.60806 14.6357 5.50141C13.8405 5.39475 13.0346 5.59702 12.384 6.06658L9.20918 8.35992C7.94996 9.26807 7.0441 10.5843 6.64562 12.0848C6.24713 13.5854 6.3806 15.1776 7.02335 16.5908L8.01772 18.7767L8.02131 18.7785ZM26.4486 33.1799C19.3728 30.1779 13.6724 24.643 10.4633 17.6587L9.47076 15.4764C9.08531 14.6285 9.00532 13.6734 9.24441 12.7732C9.48349 11.873 10.0269 11.0834 10.7823 10.5386L13.9589 8.24525C14.0518 8.17869 14.1666 8.15014 14.2798 8.16547C14.3931 8.18079 14.4962 8.23881 14.5681 8.32767L17.7859 12.3141C17.8238 12.3611 17.8518 12.4154 17.8683 12.4735C17.8847 12.5316 17.8892 12.5925 17.8815 12.6524C17.8738 12.7123 17.8541 12.7701 17.8235 12.8222C17.7929 12.8743 17.7521 12.9196 17.7035 12.9555L15.6108 14.5071C15.3639 14.6899 15.1871 14.9518 15.1098 15.2491C15.0326 15.5464 15.0595 15.8613 15.1862 16.1411C17.5896 21.4413 21.8364 25.6881 27.1366 28.0915C27.4165 28.2182 27.7313 28.2451 28.0286 28.1679C28.3259 28.0906 28.5878 27.9138 28.7706 27.6669L30.3222 25.5742C30.3581 25.5257 30.4035 25.4848 30.4555 25.4543C30.5076 25.4237 30.5654 25.4039 30.6253 25.3962C30.6852 25.3885 30.7461 25.393 30.8042 25.4094C30.8624 25.4259 30.9166 25.4539 30.9636 25.4918L34.9483 28.7079C35.0371 28.7797 35.0951 28.8828 35.1105 28.9961C35.1258 29.1093 35.0972 29.2242 35.0307 29.317L32.7481 32.4775C32.2061 33.2282 31.4222 33.7693 30.5282 34.0101C29.6342 34.2509 28.6846 34.1767 27.8389 33.7998L26.4701 33.1906L26.4486 33.1799Z" fill="#3F5097"/>
<path d="M24.6354 16.125C24.6354 16.4814 24.777 16.8232 25.029 17.0752C25.281 17.3272 25.6228 17.4687 25.9792 17.4687H32.8377C33.1941 17.4687 33.5359 17.3272 33.7879 17.0752C34.0399 16.8232 34.1814 16.4814 34.1814 16.125C34.1814 15.7686 34.0399 15.4268 33.7879 15.1748C33.5359 14.9228 33.1941 14.7812 32.8377 14.7812H29.2239L34.8838 9.12137C35.0121 8.99735 35.1143 8.84903 35.1847 8.68505C35.255 8.52108 35.292 8.34473 35.2935 8.16631C35.295 7.98789 35.2609 7.81096 35.1932 7.64585C35.1256 7.48074 35.0257 7.33076 34.8995 7.20465C34.7733 7.07854 34.6232 6.97884 34.458 6.91135C34.2929 6.84386 34.1159 6.80995 33.9375 6.81158C33.7591 6.81321 33.5828 6.85037 33.4188 6.92087C33.2549 6.99137 33.1067 7.09381 32.9828 7.2222L27.3229 12.8785V9.2665C27.3229 8.91011 27.1814 8.56832 26.9294 8.31632C26.6774 8.06432 26.3356 7.92275 25.9792 7.92275C25.6228 7.92275 25.281 8.06432 25.029 8.31632C24.777 8.56832 24.6354 8.91011 24.6354 9.2665V16.125Z" fill="#3F5097"/>
</svg>
