<svg width="43" height="43" viewBox="0 0 43 43" fill="none" xmlns="http://www.w3.org/2000/svg">
<path d="M10.0781 5.375C8.83078 5.375 7.63452 5.87051 6.75251 6.75251C5.87051 7.63452 5.375 8.83078 5.375 10.0781V30.9062C5.375 32.6882 6.08287 34.3971 7.34288 35.6571C8.60289 36.9171 10.3118 37.625 12.0938 37.625H30.9062C32.6882 37.625 34.3971 36.9171 35.6571 35.6571C36.9171 34.3971 37.625 32.6882 37.625 30.9062V26.875H29.5625V10.0781C29.5625 8.83078 29.067 7.63452 28.185 6.75251C27.303 5.87051 26.1067 5.375 24.8594 5.375H10.0781ZM29.5625 29.5625H34.9375V30.9062C34.9375 31.9754 34.5128 33.0008 33.7568 33.7568C33.0008 34.5128 31.9754 34.9375 30.9062 34.9375H29.5625V29.5625ZM8.0625 10.0781C8.0625 9.54355 8.27486 9.03087 8.65286 8.65286C9.03087 8.27486 9.54355 8.0625 10.0781 8.0625H24.8594C25.394 8.0625 25.9066 8.27486 26.2846 8.65286C26.6626 9.03087 26.875 9.54355 26.875 10.0781V34.9375H12.0938C11.0246 34.9375 9.99923 34.5128 9.24323 33.7568C8.48722 33.0008 8.0625 31.9754 8.0625 30.9062V10.0781ZM12.0938 14.7812C12.0938 14.4249 12.2353 14.0831 12.4873 13.8311C12.7393 13.5791 13.0811 13.4375 13.4375 13.4375H21.5C21.8564 13.4375 22.1982 13.5791 22.4502 13.8311C22.7022 14.0831 22.8438 14.4249 22.8438 14.7812C22.8438 15.1376 22.7022 15.4794 22.4502 15.7314C22.1982 15.9834 21.8564 16.125 21.5 16.125H13.4375C13.0811 16.125 12.7393 15.9834 12.4873 15.7314C12.2353 15.4794 12.0938 15.1376 12.0938 14.7812ZM12.0938 21.5C12.0938 21.1436 12.2353 20.8018 12.4873 20.5498C12.7393 20.2978 13.0811 20.1562 13.4375 20.1562H21.5C21.8564 20.1562 22.1982 20.2978 22.4502 20.5498C22.7022 20.8018 22.8438 21.1436 22.8438 21.5C22.8438 21.8564 22.7022 22.1982 22.4502 22.4502C22.1982 22.7022 21.8564 22.8438 21.5 22.8438H13.4375C13.0811 22.8438 12.7393 22.7022 12.4873 22.4502C12.2353 22.1982 12.0938 21.8564 12.0938 21.5ZM13.4375 26.875C13.0811 26.875 12.7393 27.0166 12.4873 27.2686C12.2353 27.5206 12.0938 27.8624 12.0938 28.2188C12.0938 28.5751 12.2353 28.9169 12.4873 29.1689C12.7393 29.4209 13.0811 29.5625 13.4375 29.5625H17.4688C17.8251 29.5625 18.1669 29.4209 18.4189 29.1689C18.6709 28.9169 18.8125 28.5751 18.8125 28.2188C18.8125 27.8624 18.6709 27.5206 18.4189 27.2686C18.1669 27.0166 17.8251 26.875 17.4688 26.875H13.4375Z" fill="#3F5097"/>
</svg>
